<svg width="14" height="14" viewBox="0 0 14 14" fill="none" xmlns="http://www.w3.org/2000/svg">
<path ignore-fill="true" d="M2.91663 8.75008H2.33329C2.02387 8.75008 1.72713 8.62716 1.50833 8.40837C1.28954 8.18958 1.16663 7.89283 1.16663 7.58341V2.33341C1.16663 2.024 1.28954 1.72725 1.50833 1.50846C1.72713 1.28966 2.02387 1.16675 2.33329 1.16675H7.58329C7.89271 1.16675 8.18946 1.28966 8.40825 1.50846C8.62704 1.72725 8.74996 2.024 8.74996 2.33341V2.91675M6.41663 5.25008H11.6666C12.311 5.25008 12.8333 5.77242 12.8333 6.41675V11.6667C12.8333 12.3111 12.311 12.8334 11.6666 12.8334H6.41663C5.77229 12.8334 5.24996 12.3111 5.24996 11.6667V6.41675C5.24996 5.77242 5.77229 5.25008 6.41663 5.25008Z" stroke="#7C7B7B" stroke-width="1.16667" stroke-linecap="round" stroke-linejoin="round"/>
</svg>
