<svg width="21" height="21" viewBox="0 0 21 21" fill="none" xmlns="http://www.w3.org/2000/svg">
<path d="M7.25 4.75H4.75V7.25H7.25V4.75Z" fill="#F7F7F7" stroke="#313131" stroke-width="1.25" stroke-linecap="round" stroke-linejoin="round"/>
<path d="M7.25 13.5H4.75V16H7.25V13.5Z" fill="#F7F7F7" stroke="#313131" stroke-width="1.25" stroke-linecap="round" stroke-linejoin="round"/>
<path d="M16 4.75H13.5V7.25H16V4.75Z" fill="#F7F7F7" stroke="#313131" stroke-width="1.25" stroke-linecap="round" stroke-linejoin="round"/>
<path fill-rule="evenodd" clip-rule="evenodd" d="M4.75 11H9.75V12.25" fill="#F7F7F7"/>
<path d="M4.75 11H9.75V12.25" stroke="#313131" stroke-width="1.25" stroke-linecap="round" stroke-linejoin="round"/>
<path fill-rule="evenodd" clip-rule="evenodd" d="M12.25 12.25V16H16V12.25H14.75" fill="#F7F7F7"/>
<path d="M12.25 12.25V16H16V12.25H14.75" stroke="#313131" stroke-width="1.25" stroke-linecap="round" stroke-linejoin="round"/>
<path d="M9.75 14.75V16" stroke="#313131" stroke-width="1.25" stroke-linecap="round" stroke-linejoin="round"/>
<path fill-rule="evenodd" clip-rule="evenodd" d="M9.75 4.75V8.5H11" fill="#F7F7F7"/>
<path d="M9.75 4.75V8.5H11" stroke="#313131" stroke-width="1.25" stroke-linecap="round" stroke-linejoin="round"/>
<path d="M13.5 9.75H16" stroke="#313131" stroke-width="1.25" stroke-linecap="round" stroke-linejoin="round"/>
<path fill-rule="evenodd" clip-rule="evenodd" d="M1 5.375V2.25C1 1.55964 1.55964 1 2.25 1H5.375" fill="#F7F7F7"/>
<path d="M1 5.375V2.25C1 1.55964 1.55964 1 2.25 1H5.375" stroke="#313131" stroke-width="1.25" stroke-linecap="round" stroke-linejoin="round"/>
<path fill-rule="evenodd" clip-rule="evenodd" d="M15.375 1H18.5C19.1904 1 19.75 1.55964 19.75 2.25V5.375" fill="#F7F7F7"/>
<path d="M15.375 1H18.5C19.1904 1 19.75 1.55964 19.75 2.25V5.375" stroke="#313131" stroke-width="1.25" stroke-linecap="round" stroke-linejoin="round"/>
<path fill-rule="evenodd" clip-rule="evenodd" d="M19.75 15.375V18.5C19.75 19.1904 19.1904 19.75 18.5 19.75H15.375" fill="#F7F7F7"/>
<path d="M19.75 15.375V18.5C19.75 19.1904 19.1904 19.75 18.5 19.75H15.375" stroke="#313131" stroke-width="1.25" stroke-linecap="round" stroke-linejoin="round"/>
<path fill-rule="evenodd" clip-rule="evenodd" d="M5.375 19.75H2.25C1.55964 19.75 1 19.1904 1 18.5V15.375" fill="#F7F7F7"/>
<path d="M5.375 19.75H2.25C1.55964 19.75 1 19.1904 1 18.5V15.375" stroke="#313131" stroke-width="1.25" stroke-linecap="round" stroke-linejoin="round"/>
</svg>
