<svg width="20" height="20" viewBox="0 0 20 20" fill="none" xmlns="http://www.w3.org/2000/svg">
<path fill-rule="evenodd" clip-rule="evenodd" d="M12.5046 0.924367V0.347762C12.5046 0.150081 12.3398 -0.00898872 12.1423 0.000394883C8.26573 0.184522 5.1591 3.30829 5.00283 7.19157C5.01117 7.43495 5.20815 7.49866 5.324 7.49866H5.90969C6.09503 7.49866 6.24696 7.35318 6.25659 7.16811C6.42294 3.97341 8.98639 1.41308 12.1827 1.25109C12.4264 1.21978 12.5046 1.08656 12.5046 0.924367ZM7.23269 7.49866H7.79318C7.97515 7.49866 8.1235 7.35686 8.13674 7.17541C8.29517 5.00495 10.0357 3.27364 12.2104 3.12937C12.3077 3.12295 12.5046 3.05014 12.5046 2.79817V2.22751C12.5046 2.02586 12.3336 1.86749 12.1324 1.88063C9.31907 2.0642 7.06939 4.31358 6.88576 7.12648C6.87266 7.32767 7.03102 7.49866 7.23269 7.49866ZM14.6818 12.5013C14.7977 12.5013 14.9946 12.565 15.003 12.8084C14.8467 16.6917 11.7401 19.8154 7.86344 19.9996C7.66594 20.009 7.50115 19.8499 7.50115 19.6522V19.0756C7.50115 18.9134 7.57935 18.7802 7.82312 18.7489C11.0194 18.5869 13.5828 16.0266 13.7492 12.8319C13.7588 12.6468 13.9108 12.5013 14.0961 12.5013H14.6818ZM12.7731 12.5013C12.9748 12.5013 13.1332 12.6723 13.12 12.8735C12.9364 15.6864 10.6867 17.9358 7.87342 18.1194C7.67216 18.1325 7.50115 17.9741 7.50115 17.7725V17.2018C7.50115 16.9498 7.69813 16.8771 7.79538 16.8706C9.97005 16.7264 11.7106 14.9951 11.869 12.8246C11.8823 12.6431 12.0306 12.5013 12.2126 12.5013H12.7731ZM10.89 12.5013C11.0941 12.5013 11.2566 12.6765 11.2363 12.8796C11.0591 14.6505 9.65068 16.0587 7.8795 16.2359C7.6764 16.2562 7.50115 16.0938 7.50115 15.8897V15.3164C7.50115 15.0818 7.70483 14.9975 7.80414 14.9855C8.94188 14.8482 9.84453 13.9476 9.98482 12.811C10.0065 12.635 10.153 12.5013 10.3303 12.5013H10.89ZM0.9245 7.49716C1.08672 7.49716 1.21995 7.57536 1.25127 7.81909C1.41332 11.0149 3.97398 13.578 7.16914 13.7443C7.35424 13.7539 7.49977 13.9058 7.49977 14.0912V14.6768C7.49977 14.7926 7.43603 14.9896 7.19264 14.9979C3.3088 14.8416 0.184583 11.7355 0.00039494 7.8594C-0.00899002 7.66193 0.150103 7.49716 0.347847 7.49716H0.9245ZM2.79861 7.49716C3.05061 7.49716 3.12339 7.69411 3.12986 7.79136C3.27411 9.96571 5.00567 11.7061 7.17644 11.8644C7.35796 11.8777 7.49977 12.026 7.49977 12.2079V12.7683C7.49977 12.97 7.32876 13.1283 7.1275 13.1152C4.31421 12.9316 2.06449 10.6823 1.8809 7.86938C1.86776 7.66815 2.02615 7.49716 2.22783 7.49716H2.79861ZM12.8074 4.98617C16.6912 5.14243 19.8154 8.24861 19.9996 12.1247C20.009 12.3221 19.8499 12.4869 19.6522 12.4869H19.0755C18.9133 12.4869 18.78 12.4087 18.7487 12.165C18.5867 8.96913 16.026 6.40609 12.8309 6.23975C12.6458 6.23013 12.5002 6.07822 12.5002 5.89291V5.30727C12.5002 5.19143 12.5639 4.99448 12.8074 4.98617ZM12.8725 6.86884C15.6858 7.05241 17.9355 9.3018 18.1191 12.1147C18.1322 12.3159 17.9738 12.4869 17.7722 12.4869H17.2014C16.9494 12.4869 16.8766 12.29 16.8701 12.1927C16.7259 10.0184 14.9943 8.27801 12.8236 8.11964C12.642 8.10639 12.5002 7.95806 12.5002 7.77613V7.21572C12.5002 7.01407 12.6712 6.8557 12.8725 6.86884ZM12.8786 8.75226C14.6498 8.92951 16.0581 10.3377 16.2354 12.1086C16.2557 12.3117 16.0932 12.4869 15.8891 12.4869H15.3157C15.0811 12.4869 14.9967 12.2832 14.9847 12.184C14.8474 11.0464 13.9467 10.1439 12.8099 10.0036C12.634 9.98186 12.5002 9.83544 12.5002 9.65816V9.09852C12.5002 8.89444 12.6755 8.73197 12.8786 8.75226ZM4.68429 7.49716C4.91891 7.49716 5.00327 7.70082 5.01526 7.80011C5.1526 8.93768 6.05327 9.84018 7.19007 9.98048C7.36602 10.0022 7.49977 10.1486 7.49977 10.3259V10.8855C7.49977 11.0896 7.32452 11.2521 7.12142 11.2318C5.35024 11.0545 3.94187 9.64635 3.7646 7.87546C3.7443 7.67239 3.9068 7.49716 4.1109 7.49716H4.68429ZM12.5046 4.11031V4.68358C12.5046 4.91817 12.301 5.00255 12.2016 5.01454C11.0639 5.15182 10.1613 6.05237 10.021 7.189C9.99924 7.36496 9.8528 7.49866 9.67549 7.49866H9.11577C8.91166 7.49866 8.74916 7.32343 8.7695 7.12036C8.94677 5.34946 10.3551 3.9413 12.1263 3.76405C12.3294 3.74376 12.5046 3.90623 12.5046 4.11031Z" fill="#FF5C00"/>
</svg>
