<svg width="18" height="17" viewBox="0 0 18 17" fill="none" xmlns="http://www.w3.org/2000/svg">
<path ignore-fill="true" d="M15.9333 12.7333V14.8667C15.9333 15.1496 15.821 15.4209 15.6209 15.6209C15.4209 15.821 15.1496 15.9333 14.8667 15.9333H2.6C2.17565 15.9333 1.76869 15.7648 1.46863 15.4647C1.16857 15.1646 1 14.7577 1 14.3333V2.6C1 2.17565 1.16857 1.76869 1.46863 1.46863C1.76869 1.16857 2.17565 1 2.6 1H13.8C14.0829 1 14.3542 1.11238 14.5542 1.31242C14.7543 1.51246 14.8667 1.78377 14.8667 2.06667V3.66667" stroke="#313131" stroke-width="1.5" stroke-linecap="round" stroke-linejoin="round"/>
<path ignore-fill="true" d="M15.9333 12.7334C16.2162 12.7334 16.4875 12.621 16.6876 12.4209C16.8876 12.2209 17 11.9496 17 11.6667V8.46669C17 8.18379 16.8876 7.91248 16.6876 7.71244C16.4875 7.5124 16.2162 7.40002 15.9333 7.40002H13.2666C12.5594 7.40002 11.8811 7.68098 11.381 8.18107C10.8809 8.68117 10.6 9.35945 10.6 10.0667C10.6 10.7739 10.8809 11.4522 11.381 11.9523C11.8811 12.4524 12.5594 12.7334 13.2666 12.7334H15.9333Z" stroke="#313131" stroke-width="1.5" stroke-linecap="round" stroke-linejoin="round"/>
<path ignore-fill="true" d="M13.2667 9.80005C13.3194 9.80005 13.371 9.81569 13.4148 9.84499C13.4587 9.87429 13.4929 9.91594 13.513 9.96467C13.5332 10.0134 13.5385 10.067 13.5282 10.1187C13.5179 10.1705 13.4925 10.218 13.4552 10.2553C13.4179 10.2926 13.3704 10.318 13.3187 10.3283C13.267 10.3385 13.2133 10.3333 13.1646 10.3131C13.1159 10.2929 13.0742 10.2587 13.0449 10.2149C13.0156 10.171 13 10.1195 13 10.0667C13 9.99599 13.0281 9.92816 13.0781 9.87815C13.1281 9.82814 13.1959 9.80005 13.2667 9.80005Z" stroke="#313131" stroke-width="1.5" stroke-linecap="round" stroke-linejoin="round"/>
<path ignore-fill="true" d="M15.9334 7.39993V4.73326C15.9334 4.45036 15.821 4.17905 15.6209 3.97902C15.4209 3.77898 15.1496 3.6666 14.8667 3.6666H4.4667C4.23518 3.67748 4.00519 3.62371 3.80248 3.51131C3.59978 3.39891 3.43236 3.2323 3.31897 3.03015" stroke="#313131" stroke-width="1.5" stroke-linecap="round" stroke-linejoin="round"/>
</svg>
